<?xml version="1.0" encoding="UTF-8" standalone="no"?>
<svg
   width="29.399708"
   height="31.728247"
   style="display:block"
   version="1.1"
   id="svg4"
   sodipodi:docname="logo.svg"
   inkscape:version="1.1 (c4e8f9e, 2021-05-24)"
   xmlns:inkscape="http://www.inkscape.org/namespaces/inkscape"
   xmlns:sodipodi="http://sodipodi.sourceforge.net/DTD/sodipodi-0.dtd"
   xmlns="http://www.w3.org/2000/svg"
   xmlns:svg="http://www.w3.org/2000/svg">
  <defs
     id="defs8" />
  <sodipodi:namedview
     id="namedview6"
     pagecolor="#ffffff"
     bordercolor="#666666"
     borderopacity="1.0"
     inkscape:pageshadow="2"
     inkscape:pageopacity="0.0"
     inkscape:pagecheckerboard="0"
     showgrid="false"
     fit-margin-top="0"
     fit-margin-left="0"
     fit-margin-right="0"
     fit-margin-bottom="0"
     inkscape:zoom="27.28125"
     inkscape:cx="10.978236"
     inkscape:cy="15.890034"
     inkscape:window-width="2560"
     inkscape:window-height="1395"
     inkscape:window-x="0"
     inkscape:window-y="23"
     inkscape:window-maximized="1"
     inkscape:current-layer="svg4" />
  <path
     d="M 28.992749,22.493538 C 28.834214,22.107109 28.685588,21.700864 28.527053,21.354069 L 27.79383,19.699362 27.7641,19.669632 C 25.584252,14.913594 23.255772,10.078283 20.788575,5.322239 L 20.68949,5.1240705 C 20.44178,4.6583746 20.194069,4.1431366 19.93645,3.6675323 19.619381,3.1027522 19.31222,2.4983383 18.80689,1.9236498 a 5.2514644,5.2514644 0 0 0 -8.124907,0 C 10.216287,2.4983383 9.8694921,3.1027522 9.5524231,3.6675323 9.3047122,4.1827703 9.0570016,4.6880999 8.7993826,5.1537958 L 8.7002984,5.3519643 C 6.2727346,10.108009 3.9046214,14.943319 1.7247683,19.699362 l -0.059451,0.05945 c -0.2179849,0.515239 -0.4756039,1.050294 -0.72331451,1.624982 -0.1585348,0.346795 -0.31706966,0.723315 -0.47560442,1.139469 a 6.737728,6.737728 0 0 0 7.13406503,9.145475 8.3032589,8.3032589 0 0 0 3.1508786,-1.089927 c 1.288095,-0.723314 2.526648,-1.773607 3.913827,-3.289596 1.387179,1.515989 2.655457,2.566282 3.913827,3.299505 a 8.3032589,8.3032589 0 0 0 3.983186,1.139469 6.7278195,6.7278195 0 0 0 6.688186,-5.776611 5.8856035,5.8856035 0 0 0 -0.257619,-3.467949 z m -14.228496,1.644798 c -1.704249,-2.179853 -2.813992,-4.181355 -3.190512,-5.895512 a 5.1523802,5.1523802 0 0 1 -0.09908,-1.942051 c 0.06936,-0.505329 0.257619,-0.951208 0.515238,-1.327729 0.594505,-0.862032 1.634889,-1.397087 2.774358,-1.397087 a 3.2697797,3.2697797 0 0 1 2.774359,1.387179 c 0.257619,0.396337 0.445879,0.832308 0.505329,1.337637 0.09909,0.574689 0.05945,1.238553 -0.09908,1.942051 -0.37652,1.684432 -1.486263,3.705751 -3.180604,5.895512 z m 12.623332,1.466447 a 4.7164096,4.7164096 0 0 1 -2.873443,3.715659 c -0.75304,0.317069 -1.585348,0.406245 -2.397839,0.317069 -0.792674,-0.09908 -1.585347,-0.356703 -2.397838,-0.832307 a 15.496774,15.496774 0 0 1 -3.596758,-3.071612 c 2.080769,-2.57619 3.339139,-4.924486 3.814743,-7.015163 0.227894,-0.990843 0.257619,-1.882601 0.158535,-2.705 a 5.4793582,5.4793582 0 0 0 -0.852124,-2.179853 5.310915,5.310915 0 0 0 -4.448883,-2.259121 c -1.833058,0 -3.467948,0.852125 -4.45879,2.249212 a 5.1325634,5.1325634 0 0 0 -0.8422158,2.189762 c -0.1288095,0.832307 -0.099084,1.753791 0.1585345,2.705 0.4756043,2.090677 1.7636993,4.468699 3.8147433,7.03498 A 14.198771,14.198771 0 0 1 9.8694921,28.844837 C 9.0470932,29.320442 8.2643277,29.568152 7.4716539,29.667236 A 4.7164096,4.7164096 0 0 1 2.2003726,25.634508 C 2.1012886,24.841834 2.1706476,24.04916 2.4877169,23.157402 2.5868009,22.840333 2.7354274,22.523263 2.8939622,22.146743 3.1119475,21.631505 3.3695665,21.09645 3.6172771,20.561395 l 0.039634,-0.06936 C 5.7971303,15.765718 8.1355182,10.940316 10.563082,6.2139971 l 0.09908,-0.1981684 c 0.24771,-0.4756044 0.495421,-0.980934 0.75304,-1.4565383 0.257619,-0.5053296 0.535055,-0.9908423 0.891758,-1.3871793 a 3.2895966,3.2895966 0 0 1 5.043388,0 c 0.346794,0.396337 0.634139,0.8818497 0.891758,1.3871793 0.24771,0.4756043 0.495421,0.9908423 0.75304,1.4565383 l 0.09908,0.1981684 c 2.417656,4.7263189 4.756043,9.5517209 6.935897,14.2780389 l 0.02972,0.02973 c 0.257619,0.515238 0.475604,1.089926 0.723315,1.585347 0.158535,0.386429 0.317069,0.69359 0.416154,1.020568 0.18826,0.891758 0.287344,1.684432 0.18826,2.477106 z"
     id="path2"
     style="fill:#ffa18e;fill-opacity:1;stroke-width:0.990842" />
</svg>
