<?xml version="1.0" encoding="UTF-8" standalone="no"?>
<svg
   height="99.898445"
   version="1.1"
   id="Layer_1"
   x="0px"
   y="0px"
   viewBox="0 0 433.80691 33.266182"
   enable-background="new 0 0 320.1 99.9"
   xml:space="preserve"
   width="433.80692"
   xmlns="http://www.w3.org/2000/svg"
   xmlns:svg="http://www.w3.org/2000/svg"><defs
   id="defs868" />
<path
   style="color:#000000;fill:#00a6de;-inkscape-stroke:none;fill-opacity:1"
   d="m 46.508894,-33.316131 c -5,0 -9.500781,2.200003 -12.800781,6.000003 -1.5,1.8 -2.59961,3.7 -3.59961,5.5 -0.8,1.6 -1.60039,3.19922 -2.40039,4.69922 l -0.298828,0.59961 c -7.700001,15 -15.19961,30.20117 -22.0996101,45.20117 l -0.1015624,0.19922 c -0.7000001,1.6 -1.4988282,3.29961 -2.2988282,5.09961 -0.5,1.1 -1,2.29961 -1.5,3.59961 -1.3,3.7 -1.7011718,7.20078 -1.2011718,10.80078 1.1,7.5 6.0999998,13.79961 13.0000005,16.59961 2.6,1.1 5.301562,1.59961 8.101562,1.59961 0.8,0 1.79961,-0.0992 2.59961,-0.19922 3.3,-0.4 6.7,-1.50039 10,-3.40039 4.1,-2.3 8.00039,-5.60039 12.40039,-10.40039 4.4,4.8 8.398438,8.10039 12.398438,10.40039 3.3,1.9 6.7,3.00039 10,3.40039 0.8,0.1 1.801562,0.19922 2.601562,0.19922 2.8,0 5.59961,-0.49961 8.09961,-1.59961 7,-2.8 11.9,-9.19961 13,-16.59961 0.8,-3.5 0.399609,-6.99922 -0.900391,-10.69922 -0.5,-1.2 -1,-2.50156 -1.5,-3.60156 -0.8,-1.8 -1.600781,-3.49961 -2.300781,-5.09961 l -0.09961,-0.09961 c -6.9,-15 -14.299609,-30.19922 -22.099609,-45.19922 l -0.300781,-0.60156 c -0.8,-1.5 -1.598438,-3.09922 -2.398438,-4.69922 -1,-1.8 -2.001562,-3.7 -3.601562,-5.5 -3.2,-4 -7.799219,-6.199223 -12.699219,-6.199223 z m 0.09961,6.599613 c 3.1,0 5.9,1.29922 8,3.69922 1.1,1.3 2.000782,2.80039 2.800782,4.40039 0.8,1.5 1.60039,3.09961 2.40039,4.59961 l 0.298828,0.59961 c 7.600001,14.9 15.000391,30.1 21.900391,45 v 0.10156 c 0.8,1.6 1.500781,3.4 2.300781,5 0.5,1.2 0.998828,2.19922 1.298828,3.19922 0.8,2.6 1.101172,5.09922 0.701172,7.69922 -0.7,5.2 -4.201562,9.70117 -9.101562,11.70117 -2.4,1 -4.99961,1.3 -7.59961,1 -2.5,-0.3 -4.999609,-1.09961 -7.599609,-2.59961 -3.6,-2 -7.200391,-5.10117 -11.400391,-9.70117 6.600001,-8.1 10.59961,-15.49961 12.09961,-22.09961 0.7,-3.1 0.8,-5.9 0.5,-8.5 -0.4,-2.5 -1.299219,-4.80078 -2.699219,-6.80078 -3.1,-4.5 -8.299609,-7.09961 -14.099609,-7.09961 -5.8,0 -10.99961,2.69961 -14.09961,7.09961 -1.4,2 -2.301172,4.30078 -2.701172,6.80078 -0.4,2.6 -0.3,5.5 0.5,8.5 1.5,6.6 5.59961,14.09922 12.09961,22.19922 -4.1,4.6 -7.798438,7.70117 -11.398438,9.70117 -2.6,1.5 -5.101562,2.29961 -7.601562,2.59961 -2.7,0.3 -5.29961,-0.1 -7.59961,-1 -4.9,-2 -8.3996093,-6.49922 -9.0996093,-11.69922 -0.3,-2.5 -0.099609,-5.00078 0.9003906,-7.80078 0.3,-1 0.7988277,-1.99922 1.2988277,-3.19922 0.7,-1.6 1.500782,-3.3 2.300782,-5 l 0.09961,-0.20117 c 6.900001,-14.9 14.3,-30.10039 22,-44.90039 l 0.300782,-0.59961 c 0.8,-1.5 1.60039,-3.09961 2.40039,-4.59961 0.8,-1.6 1.698828,-3.10039 2.798828,-4.40039 2.1,-2.4 4.9,-3.69922 7.999999,-3.69922 z m -0.199218,36.29883 c 3.7,0 6.998828,1.60039 8.798828,4.40039 0.8,1.2 1.401562,2.60117 1.601562,4.20117 0.3,1.8 0.199219,3.89961 -0.300781,6.09961 -1.2,5.3 -4.699609,11.69961 -10.099609,18.59961 -5.4,-6.8 -8.89961,-13.19961 -10.09961,-18.59961 -0.5,-2.3 -0.600781,-4.29961 -0.300781,-6.09961 0.2,-1.6 0.799609,-3.00117 1.599609,-4.20117 1.9,-2.7 5.100782,-4.40039 8.800782,-4.40039 z"
   id="path1149" /><path
   style="color:#000000;fill:#00a6de;-inkscape-stroke:none;fill-opacity:1"
   d="m 310.9073,2.483092 c 2.9,0 4.4,0.5 4.4,0.5 v 8.9 c 0,0 -8,-2.7 -13,3 v 26.3 h -9.6 v -37.7 c 0,0 7.4,0 8.1,0 0.8,0 1.4,0.7 1.4,1.4 v 1.6 c 1.8,-2.1 5.7,-4 8.7,-4 z"
   id="path1143" /><path
   style="color:#000000;fill:#00a6de;-inkscape-stroke:none;fill-opacity:1"
   d="m 317.2073,-14.616908 v 55.69922 h 8.09961 c 0.8,0 1.40039,-0.69844 1.40039,-1.39844 v -1.70117 c 0,0 3.09922,4.09961 9.69922,4.09961 10.9,0 19.40039,-8.39883 19.40039,-19.79883 0.1,-11.4 -8.39883,-19.80078 -19.29883,-19.80078 -6.6,0 -9.70117,4 -9.70117,4 v -21.09961 z m 17.69922,26 c 6.4,0 11.30078,4.00078 11.30078,10.80078 0,6.8 -4.90078,10.79883 -11.30078,10.79883 -3.7,0 -6.59961,-1.89961 -8.09961,-4.09961 v -13.40039 c 1.5,-2 4.69961,-4.09961 8.09961,-4.09961 z"
   id="path1141" /><path
   style="color:#000000;fill:#00a6de;-inkscape-stroke:none;fill-opacity:1"
   d="m 392.2073,18.783092 v 22.4 h -9.6 v -21.3 c 0,-6.2 -2,-8.7 -7.4,-8.7 -2.9,0 -5.9,1.5 -7.8,3.7 v 26.2 h -9.6 v -37.6 h 7.6 c 0.8,0 1.4,0.7 1.4,1.4 v 1.6 c 2.8,-2.9 6.5,-4 10.2,-4 4.2,0 7.7,1.2 10.5,3.6 3.4,2.8 4.7,6.4 4.7,12.7 z"
   id="path1137" /><path
   style="color:#000000;fill:#00a6de;-inkscape-stroke:none;fill-opacity:1"
   d="m 395.2073,-14.616908 v 55.69922 h 8.09961 c 0.8,0 1.40039,-0.69844 1.40039,-1.39844 v -1.70117 c 0,0 3.09922,4.09961 9.69922,4.09961 10.9,0 19.40039,-8.39883 19.40039,-19.79883 0,-11.4 -8.49883,-19.80078 -19.29883,-19.80078 -6.6,0 -9.70117,4 -9.70117,4 v -21.09961 z m 17.69922,26 c 6.4,0 11.30078,4.00078 11.30078,10.80078 0,6.8 -4.90078,10.79883 -11.30078,10.79883 -3.7,0 -6.59961,-1.89961 -8.09961,-4.09961 v -13.40039 c 1.5,-2 4.69961,-4.09961 8.09961,-4.09961 z"
   id="path1135" /><path
   style="color:#000000;fill:#00a6de;-inkscape-stroke:none;fill-opacity:1"
   d="m 277.1073,3.483092 h 9.6 v 37.6 h -9.6 z"
   id="path1131" /><path
   style="color:#000000;fill:#00a6de;-inkscape-stroke:none;fill-opacity:1"
   d="m 288.4073,-8.216908 c 0,3.6 -2.9,6.5 -6.5,6.5 -3.6,0 -6.5,-2.9 -6.5,-6.5 0,-3.6 2.8,-6.5 6.5,-6.5 3.7,0.1 6.5,3 6.5,6.5 z"
   id="path863" />
<path
   style="color:#000000;font-size:74.6667px;font-family:'Airbnb Cereal App';-inkscape-font-specification:'Circular Std Bold, ';letter-spacing:-2.05px;fill:#00a6de;-inkscape-stroke:none;fill-opacity:1"
   d="m 124.92833,19.942499 c 0,-4.256002 2.53866,-7.616004 6.86933,-7.616004 4.77867,0 6.79467,3.210668 6.79467,7.317337 V 41.073175 H 148.523 V 17.926498 c 0,-8.064004 -4.18133,-14.560007 -13.29067,-14.560007 -3.95733,0 -8.36267,1.717334 -10.60267,5.525336 V 4.337158 h -9.63201 v 36.736017 h 9.93068 z"
   id="path7299" /><path
   style="color:#000000;font-size:74.6667px;font-family:'Airbnb Cereal App';-inkscape-font-specification:'Circular Std Bold, ';letter-spacing:-2.05px;fill:#00a6de;-inkscape-stroke:none;fill-opacity:1"
   d="m 170.03591,33.158505 c -4.85333,0 -9.33333,-3.584002 -9.33333,-10.453338 0,-6.944004 4.48,-10.453339 9.33333,-10.453339 4.85334,0 9.33334,3.509335 9.33334,10.453339 0,6.944003 -4.48,10.453338 -9.33334,10.453338 z m 0,-29.941348 c -10.976,0 -19.26401,8.138671 -19.26401,19.48801 0,11.274672 8.28801,19.488009 19.26401,19.488009 10.97601,0 19.26401,-8.213337 19.26401,-19.488009 0,-11.349339 -8.288,-19.48801 -19.26401,-19.48801 z"
   id="path7301" /><path
   style="color:#000000;font-size:74.6667px;font-family:'Airbnb Cereal App';-inkscape-font-specification:'Circular Std Bold, ';letter-spacing:-2.05px;fill:#00a6de;-inkscape-stroke:none;fill-opacity:1"
   d="m 207.18826,-6.638847 h -8.96 v 5.152002 c 0,3.285335 -1.792,5.824003 -5.67467,5.824003 h -1.86667 v 8.810671 h 6.64534 v 17.098674 c 0,7.093337 4.48,11.349339 11.648,11.349339 2.91201,0 4.70401,-0.522667 5.60001,-0.896 v -8.213337 c -0.52267,0.149333 -1.86667,0.298666 -3.06134,0.298666 -2.83733,0 -4.33067,-1.045333 -4.33067,-4.256002 v -15.38134 h 7.39201 V 4.337158 h -7.39201 z"
   id="path7303" /><path
   style="color:#000000;font-size:74.6667px;font-family:'Airbnb Cereal App';-inkscape-font-specification:'Circular Std Bold, ';letter-spacing:-2.05px;fill:#00a6de;-inkscape-stroke:none;fill-opacity:1"
   d="m 263.40846,41.073175 h 11.2 l -20.16001,-52.938692 h -11.94667 l -20.30934,52.938692 h 10.90134 l 4.40533,-12.096005 h 21.50401 z M 248.25112,-0.44151088 255.56845,19.569165 h -14.63467 z"
   id="path7305" /></svg>
