<svg viewBox="0 0 32 32" xmlns="http://www.w3.org/2000/svg" aria-hidden="true" role="presentation" focusable="false" style="display: block; height: 24px; width: 24px; fill: currentcolor;"><path d="M2 4h2v2h2V4h2v5a3.001 3.001 0 0 1-2 2.829V17a1 1 0 0 0 .883.993L7 18h3V5a3 3 0 0 1 3-3h12a3 3 0 0 1 3 3v23h2v2H2v-2h8v-8H7a3 3 0 0 1-2.995-2.824L4 17v-5.17a3.002 3.002 0 0 1-1.994-2.636L2 9V4zm23 0H13l-.117.007A1 1 0 0 0 12 5v23h14V5a1 1 0 0 0-1-1zm-4.434 13l-1.799 3H21a1 1 0 0 1 .911 1.413l-.054.101L19.765 25h-2.332l1.802-3H17a1 1 0 0 1-.911-1.413l.054-.101L18.233 17h2.333zM23 6a1 1 0 0 1 1 1v6a1 1 0 0 1-1 1h-8a1 1 0 0 1-1-1V7a1 1 0 0 1 1-1h8zm-1 2h-6v4h6V8zM6 8H4v1a1 1 0 0 0 .77.974l.113.02L5 10a1 1 0 0 0 .993-.883L6 9V8z"></path></svg>