<svg height="16px" viewBox="0 0 512 512" width="16px" xmlns="http://www.w3.org/2000/svg"><path d="m497 353.671875c-30.4375 0-59.023438-11.742187-80.5-33.066406-21.46875-21.3125-33.289062-49.699219-33.289062-79.929688 0-8.285156-6.71875-15-15-15-8.285157 0-15 6.714844-15 15 0 30.230469-11.824219 58.617188-33.292969 79.929688-21.476563 21.324219-50.0625 33.066406-80.5 33.066406-8.285157 0-15 6.714844-15 15s6.714843 15 15 15c62.742187 0 113.792969 50.839844 113.792969 113.328125 0 8.285156 6.714843 15 15 15 8.28125 0 15-6.714844 15-15 0-62.488281 51.046874-113.328125 113.789062-113.328125 8.285156 0 15-6.714844 15-15s-6.714844-15-15-15zm0 0"/><path d="m205.234375 236.386719c-44.175781 0-80.117187-35.675781-80.117187-79.53125 0-8.28125-6.714844-15-15-15-8.285157 0-15 6.71875-15 15 0 43.855469-35.941407 79.53125-80.117188 79.53125-8.285156 0-15 6.71875-15 15 0 8.285156 6.714844 15 15 15 44.175781 0 80.117188 35.789062 80.117188 79.777343 0 8.28125 6.714843 15 15 15 8.285156 0 15-6.71875 15-15 0-43.988281 35.941406-79.777343 80.117187-79.777343 8.285156 0 15-6.714844 15-15 0-8.28125-6.714844-15-15-15zm0 0"/><path d="m229.636719 103.65625c32.488281 0 58.921875 26.230469 58.921875 58.46875 0 8.28125 6.714844 15 15 15s15-6.71875 15-15c0-32.34375 26.433594-58.65625 58.921875-58.65625 8.285156 0 15-6.71875 15-15 0-8.285156-6.714844-15-15-15-32.488281 0-58.921875-26.230469-58.921875-58.46875 0-8.285156-6.714844-15-15-15s-15 6.714844-15 15c0 32.34375-26.433594 58.65625-58.921875 58.65625-8.285157 0-15 6.714844-15 15s6.714843 15 15 15zm0 0"/></svg>